<?xml version="1.0" encoding="UTF-8"?>
<svg id="Layer_2" data-name="Layer 2" xmlns="http://www.w3.org/2000/svg" viewBox="0 0 245.29 177.99">
  <defs>
    <style>
      .cls-1 {
        fill: #193cb8;
        stroke-width: 0px;
      }
    </style>
  </defs>
  <g id="Layer_1-2" data-name="Layer 1">
    <path class="cls-1" d="M90.16,112.98c-8.17-11.2-16.5-22.28-25.01-33.22-3.93-5.05-7.91-10.06-11.95-15.02-.81-.99-1.63-1.97-2.44-2.97-.25-.31-3.84-4.99-1.31-1.63-1.83-2.42-3.62-4.87-5.28-7.41-1.58-2.4-2.94-4.89-4.34-7.39-2.15-3.83.52,3,.24.67-.08-.68-.41-1.88-.7-2.49,1.17,2.5.49,4.99.52,2.85-.1,7.21-4.81,13.72-11.89,15.59.2-.05-6.08.6-3.07.46,3.27-.15-4.66-1.38-1.33-.06,1.2.48,2.5.82,3.72,1.26-.76-.28-3.74-1.78-.23-.02,2.65,1.33,5.28,2.64,7.89,4.05,5.41,2.92,10.8,5.89,16.29,8.66,12.03,6.06,24.21,12.03,36.66,17.19,11.79,4.89,24.74,7.34,36.64,1.35s16.26-16.74,20.49-27.95c.93-2.47,1.8-4.96,2.75-7.42.39-1.02.78-2.05,1.2-3.06-1.82,4.43.37-.61.7-1.26,1.1-2.18,2.54-4.13,3.73-6.25,1.46-2.6-3.1,3.39.06-.14.98-1.09,1.93-2.17,2.98-3.2.85-.83,1.77-1.57,2.64-2.38,2.11-1.94-4,2.51-.15.23.78-.46,1.53-.97,2.33-1.41l1.19-.64c1.97-.94,1.59-.82-1.13.36.14-.75,4.97-1.5,5.68-1.69,4.04-1.12-.47.86-.78.05,0,0,3.77-.09,3.94-.08l1.32.07c1.77.18,1.76.17-.01-.03l-1.33-.16c.89.17,1.77.37,2.65.61.89.24,1.75.57,2.64.82,4.34,1.26-3.43-2.26.44.28.82.54,1.74.97,2.57,1.48.57.36,4.47,2.02,1.58.96-2.34-.86-.04-.01.79.68s1.71,1.48,2.53,2.24c2.78,2.57,5.28,5.38,7.75,8.25.99,1.15,1.19,2.56-1.02-1.37.45.8,1.14,1.54,1.67,2.3,1.2,1.71,2.35,3.46,3.42,5.24,1.89,3.13,3.11,7.21,5.26,10.1-.17-.22-1.85-4.71-.69-1.63.34.88.69,1.76,1.01,2.65.71,1.95,1.35,3.92,1.93,5.92,1.03,3.57,1.29,7.45,2.4,10.95-.07-.22-.57-5.3-.28-2.01.08.92.19,1.84.26,2.76.15,2.01.23,4.03.23,6.04,0,1.82-.07,3.63-.21,5.45-.05.72-.14,1.44-.2,2.16-.32,4.09.94-5.05.13-1.04-.72,3.51-1.47,6.96-2.66,10.35-1.8,5.13,1.93-3.78-.41,1.13-.77,1.61-1.61,3.18-2.52,4.7-.83,1.38-1.85,2.65-2.67,4.04-1.31,2.24,3.38-3.92.79-1.05-.74.82-1.43,1.66-2.19,2.47-1.28,1.36-2.63,2.65-4.04,3.87-.45.39-1.36.96-1.75,1.46,2.5-3.22,2.6-1.85.79-.7-3.59,2.27-7.81,3.89-11.28,6.23,3.53-2.38,3.5-1.39,1.84-.8-1.23.44-2.45.9-3.7,1.31-2.04.66-4.12,1.23-6.22,1.69-.96.21-1.98.3-2.92.56-1.57.26-.78.15,2.38-.31-.78.08-1.56.15-2.34.2-1.82.1-3.97-.41-5.72-.08,3.84-.72,3.77.69,1-.03s-1.59-2.04.83.57c-.01-.01-1.58-1-1.8-1.02,2.62,2.16,3.15,2.56,1.6,1.21-1.05-1.13-1-.99.15.44,2.04,3.37.03-.62-.28-.73,1.04,2.88,1.32,3.5.83,1.84-.37-1.47-.36-1.01.03,1.41,0,0-.25-5.48-.2-2.19-.28,1.57-.23,1.37.13-.6.23-1.09.5-2.17.81-3.24.31-1.07.7-2.11,1.04-3.17,1.4-4.39-1.45,2.5.53-1.29,1.55-2.98,3.04-5.95,4.78-8.82,1.59-2.61,3.28-5.15,5.07-7.63.6-.84,2.94-3.79.39-.61,1.04-1.3,2.1-2.6,3.18-3.87,8.31-9.8,17.83-18.48,27.56-26.84,7.96-6.84,7.55-21.35,0-28.28-8.48-7.79-19.79-7.3-28.28,0-21.08,18.11-41.17,38.74-51.21,65.17-5.83,15.34-5.49,33.59,6.47,45.97,8.74,9.04,21.96,12.77,34.28,11.75,21-1.74,42.83-11.2,56.54-27.61,13.44-16.09,20.26-36.29,19.39-57.3-.81-19.72-7.11-39.66-18.29-55.98C213.46,17.27,192.92-.97,167.55.04c-14.5.57-27.69,6.53-38.33,16.29s-16.64,23.42-21.66,37.05c-.86,2.33-1.58,4.81-2.67,7.04,2.38-4.87.23-.86-.3.03-.91,1.54-3.29,3.6.49-.39-2.11,2.23,1.6-.99,1.81-1.12-1.67,1.11-3.83,1.34,1.38-.31-3.5,1.11,5.22.2,1.37-.09-.74.02-1.47-.01-2.2-.08,3.15.48,3.92.56,2.33.24-2.25-1.18-5.56-1.64-8.01-2.48-5.3-1.82,3.51,1.75-1.56-.65-1.31-.62-2.63-1.21-3.94-1.83-6.57-3.12-13.15-6.22-19.69-9.42-14-6.86-28.12-17.2-43.43-20.78-9.01-2.11-19.44-1.2-26.2,5.9C.49,36.19-1.21,45.22.79,54.17c3.58,16,16.58,29.52,26.54,41.84,2.41,2.99,4.8,5.99,7.17,9.01.1.13,3.98,5.11,1.58,2.02,1.57,2.03,3.12,4.06,4.66,6.1,5.03,6.63,9.97,13.32,14.87,20.04,6.15,8.43,17.65,13.44,27.36,7.18,8.35-5.38,13.77-18.32,7.18-27.36h0Z"/>
  </g>
</svg>
