<?xml version="1.0" encoding="UTF-8"?>
<svg id="Layer_2" data-name="Layer 2" xmlns="http://www.w3.org/2000/svg" viewBox="0 0 187.68 228.14">
  <defs>
    <style>
      .cls-1 {
        fill: #006045;
        stroke-width: 0px;
      }
    </style>
  </defs>
  <g id="Layer_1-2" data-name="Layer 1">
    <path class="cls-1" d="M39.16,213.63c7.58-30.33,13.82-60.96,19.23-91.74,2.69-15.33,5.14-30.7,7.55-46.08,1.02-6.51,2.02-13.03,3.31-19.49.69-3.44,1.45-6.87,2.37-10.26.41-1.51.84-3.02,1.33-4.51.29-.89.6-1.78.93-2.66.81-2.07.62-1.65-.56,1.27.45-.38,4.31-6.68,1.54-3.3-2.34,2.86-.48.59.07.1,2.48-2.19-4.48,2.93-1.78,1.35s-5.31,1.87-2.43,1.04-5.92.42-2.9.47c-6.3-.12-4.84-.89-2.85-.28,2.65.82-5.17-3.06-1.64-.62.47.32,1.06.79,1.59,1.02,2.01.88-4.09-3.71-1.81-1.39,1.25,1.28,2.62,2.43,3.84,3.75s5.2,6.89,1.31,1.3c1.21,1.74,2.52,3.42,3.72,5.17,11.57,16.9,21.49,35.38,31.33,53.31,16.5,30.06,31.52,60.9,47.3,91.33,4.82,9.3,18.6,12.82,27.36,7.18,9.48-6.11,12.33-17.41,7.18-27.36-15.05-29.03-29.41-58.42-45.02-87.16-10.58-19.49-21.29-39.64-33.92-57.93-6.09-8.81-12.82-17.63-22.06-23.37-11.88-7.38-26.67-6.12-36.95,3.39s-13.74,23.91-16.34,36.66c-3.19,15.61-5.17,31.47-7.77,47.19-6.16,37.26-13.36,74.36-22.51,111-2.53,10.13,3.26,22.16,13.97,24.6s21.89-3.11,24.6-13.97h0Z"/>
  </g>
</svg>