<?xml version="1.0" encoding="UTF-8"?>
<svg id="Layer_2" data-name="Layer 2" xmlns="http://www.w3.org/2000/svg" viewBox="0 0 206.48 233.75">
  <defs>
    <style>
      .cls-1 {
        fill: #9f2d00;
        stroke-width: 0px;
      }
    </style>
  </defs>
  <g id="Layer_1-2" data-name="Layer 1">
    <path class="cls-1" d="M83.6,203.57c-8.59-11.61-17.42-23.06-25.25-35.21-4.04-6.27-7.83-12.72-11.12-19.42-.39-.81-2.79-4.66-2.55-5.5,0-.02,1.38,3.53.58,1.32-.34-.93-.72-1.85-1.06-2.78-1.26-3.42-2.35-6.91-3.19-10.46-.39-1.62-.63-3.27-1-4.9-.49-2.21.22,1.73.21,1.82.09-.77-.21-1.97-.27-2.79-.26-3.5-.09-6.93.14-10.43.19-2.77-.82,3.87-.11,1.18.18-.67.27-1.38.42-2.06.42-1.86,1.01-3.64,1.57-5.46,1.09-3.54-1.57,2.71.21-.62.97-1.81,2.07-3.47,3.15-5.21,1.2-1.94-1.06,1.54-1.1,1.39-.05-.18,1.49-1.71,1.76-2,1.05-1.12,2.36-2.06,3.36-3.21,1.53-1.76-1.55,1.29-1.46,1.05.12-.34,1.75-1.25,2.17-1.53,1.48-.98,3.01-1.88,4.59-2.69.65-.33,1.92-.72,2.4-1.16-.06.06-3.75,1.39-1.69.74,1.49-.47,2.94-1.04,4.45-1.46,1.73-.48,3.48-.84,5.24-1.18.58-.11,2.94-.52,0-.02-3.35.57.91.02,1.36,0,1.57-.07,3.14-.07,4.7,0,.67.03,1.34.09,2.01.12,3.54.17-.85-.01-1.32-.23,1.26.59,3.24.63,4.59.97,2.13.54,4.17,1.34,6.28,1.93,2.83.79-2.69-1.45-.08-.06.75.4,1.54.73,2.3,1.12,1.79.92,3.53,1.92,5.24,2.98s3.37,2.27,5.05,3.43c-3.09-2.13,1.24,1.02,2.04,1.7,11.11,9.32,21.06,20.56,33.96,27.52,17.83,9.63,37.53,8.81,53.46-4.05,11.42-9.21,18.6-23.87,20.81-38.19,2.71-17.53.29-36.72-9.92-51.68-11.73-17.17-28.76-27.3-47.11-36.13-9.41-4.53-22.04-2.89-27.36,7.18-4.73,8.95-2.89,22.52,7.18,27.36,7.07,3.41,14.16,6.83,20.78,11.06,1.59,1.01,3.11,2.1,4.66,3.17-3.21-2.24.44.42,1.54,1.42,1.39,1.26,2.72,2.57,3.98,3.96.36.4,2.12,2.14,2.1,2.45.03-.36-2.18-3.16-.65-.79.76,1.19,3.23,7.15,4.27,7.57-.39-.15-1.62-4.64-.62-1.28.18.6.41,1.19.6,1.79.51,1.61.94,3.25,1.29,4.9.18.83.27,1.68.47,2.5.51,2.07-.36-2.06-.29-2.16-.34.45.27,3.73.29,4.46.04,1.49.02,2.98-.06,4.47-.02.4-.31,2.41-.2,2.54-.32-.37.83-4.6.2-1.54s-1.37,5.68-2.21,8.53c-.94,3.2,1.94-3.58-.16.38-.77,1.46-1.59,2.86-2.42,4.29-2.37,4.05,2.11-2.04-.15.38-.98,1.04-1.96,2.07-2.97,3.09-.75.77-2.75,1.62-.32.42s.59-.37.04-.09c-.22.11-2.08,1.37-2.55,1.33.61.05,3.76-1.09,1-.62.07-.01-2.38.42-2.49.56.32-.42,4.06.03,2.24-.41-.66-.16-1.74-.13-2.43-.04-1.95.24,2.12.07,2.32.33-.23-.31-3.57-1.02-4.13-1.12-2.44-.42,3.41,1.98,1.3.6-.86-.57-1.96-.96-2.86-1.46-1.15-.64-2.27-1.33-3.37-2.06-.52-.34-4.89-3.2-2.38-1.59s-1.66-1.37-2.29-1.91c-1.43-1.2-2.83-2.44-4.21-3.68-12.57-11.27-24.7-22.6-40.48-29.26s-33.13-8.12-49.52-3.33-30.41,14.95-39.24,29.31C-.05,100.32-1.48,118.61,1.21,135.85c5.23,33.45,28.32,61.53,47.85,87.9,6.21,8.38,17.61,13.46,27.36,7.18,8.3-5.35,13.83-18.37,7.18-27.36h0Z"/>
  </g>
</svg>