<?xml version="1.0" encoding="UTF-8"?>
<svg id="Layer_2" data-name="Layer 2" xmlns="http://www.w3.org/2000/svg" viewBox="0 0 263.78 220.21">
  <defs>
    <style>
      .cls-1 {
        fill: #a50036;
        stroke-width: 0px;
      }
    </style>
  </defs>
  <g id="Layer_1-2" data-name="Layer 1">
    <path class="cls-1" d="M40,98.01c.05-3.61.17-7.21.45-10.81.05-.68.93-4.84.51-5.27.14.15-.82,5.14-.19,1.43.18-1.06.34-2.12.54-3.18.57-3.11,1.28-6.19,2.17-9.22.46-1.58.97-3.15,1.53-4.69.19-.53.89-1.83.87-2.28.07,1.3-1.89,4.01-.31.9,1.35-2.68,2.75-5.3,4.43-7.78.22-.32,1.25-1.46,1.38-1.94-.63,2.45-2.41,2.87-.9,1.24,1.37-1.48,2.68-2.98,4.15-4.36.61-.57,4.4-3.44,1.73-1.62s2.08-1.34,2.64-1.69c1.49-.93,3.02-1.78,4.59-2.57.6-.3,1.22-.59,1.82-.88,4.17-2.03-4.16,1.33.39-.11,4.05-1.28,8.06-2.51,12.24-3.34,1.21-.24,2.44-.4,3.65-.66,3.13-.68-3,.24.2-.05,2.79-.25,5.56-.55,8.36-.71,9.61-.55,19.27-.37,28.88.13,4.59.24,9.17.57,13.74,1.01,2.29.22,4.57.5,6.85.75-.75-.08-4.07-.61-.2-.02,1.42.21,2.83.43,4.25.66,9.01,1.49,17.93,3.56,26.62,6.39,2.16.71,4.31,1.46,6.44,2.26,1.06.4,2.12.84,3.18,1.24,2.83,1.08-2.78-1.37-.06,0,4.36,2.19,8.75,4.21,12.95,6.71,1.65.98,3.28,1.99,4.88,3.03.84.55,1.67,1.11,2.5,1.69.56.39,3.06,2.41.95.66s.32.32.83.76c.74.63,1.46,1.28,2.17,1.94,1.58,1.47,3.09,3.01,4.54,4.61.64.71,1.24,1.44,1.87,2.16,1.15,1.32,2.02,1.1-.5-.69,1.27.91,2.35,3.35,3.18,4.68,1.86,2.97,4.44,6.62,5.29,10.05-1.23-4.96.09.51.57,1.92.62,1.84,1.18,3.7,1.67,5.57s.94,3.82,1.33,5.75c.19.98.35,1.96.53,2.94.46,2.51.11.55-.07-.84l.71,5.32-.32-2.27s.28,2.64.31,3.02c.18,1.98.31,3.97.38,5.97.14,4.1.05,8.21-.32,12.3-.47,5.2.68-3.43-.19,1.66-.27,1.6-.59,3.19-.95,4.77-.88,3.81-2.15,7.44-3.44,11.13-.89,2.57,1.64-3.44.42-1.01-.41.81-.77,1.65-1.17,2.47-.81,1.64-1.68,3.24-2.61,4.81-.82,1.39-1.68,2.75-2.58,4.08-.19.28-1.16,2.03-1.6,2.27,1.59-2,1.92-2.42,1-1.27-.44.55-.89,1.1-1.34,1.64-2.33,2.76-4.85,5.35-7.51,7.79-1.47,1.35-3.01,2.6-4.54,3.89-2.16,1.82,2.8-1.9.4-.34-1.09.71-2.11,1.52-3.18,2.25-1.99,1.36-4.02,2.65-6.11,3.83-.94.53-1.9,1.05-2.87,1.54-1.81.92-2.98,1.31-.4.34-2.25.85-4.5,1.62-6.85,2.16-.74.17-4.02.5-1.18.31,3.08-.2-1.31-.1-1.93-.06-4.27.28.8-.28.8.27,0-.28-4.89-.94-1.99-.29,2.41.54-.23-.13-1.03-.62-3.78-2.31.47.24.35.39-.03.03-1.6-1.5-1.82-1.73-.43-.44-.84-.89-1.23-1.37-.97-1.16-.54-.61,1.31,1.65.09-.26-2.11-3.97-2.32-4.13,1.9,1.5,1.3,3.75.72,1.47-.29-1.16-.69-2.28-.95-3.45-.12-.54-.2-2.02-.45-2.37.43.61.37,4.57.28,1.67-.13-4.05.11-7.94.28-11.98.09-2.16-.27,2.08-.3,2.13.39-.53.52-3.14.64-3.81.35-1.89.76-3.77,1.2-5.64.89-3.78,1.94-7.51,3.06-11.22,3.02-10.02-3.61-22.24-13.97-24.6s-21.37,3.24-24.6,13.97c-5.2,17.25-9.18,36.45-4.26,54.24,3.13,11.31,9.82,20.5,19.17,27.41,11,8.13,25.06,9.27,38.1,6.52,20.12-4.23,39.67-19.27,52.13-35.22,13.18-16.88,20.28-36.3,21.71-57.66.29-4.37.28-8.77,0-13.14-.14-2.27-.37-4.52-.64-6.78-.29-2.39-1.41-9.76-.49-3.79-.43-2.76-.71-5.54-1.16-8.29-1.68-10.1-5.12-19.79-9.64-28.97-9.41-19.13-25.87-33.6-44.56-43.35-21.14-11.03-43.84-16.45-67.35-19.35s-46.71-3.48-69.58.44C47.23,6.69,26.51,18.93,14.17,38.92,3.36,56.43.26,77.8,0,98.01c-.13,10.46,9.3,20.48,20,20s19.86-8.79,20-20h0Z"/>
  </g>
</svg>