<?xml version="1.0" encoding="UTF-8"?>
<svg id="Layer_2" data-name="Layer 2" xmlns="http://www.w3.org/2000/svg" viewBox="0 0 202.98 250.61">
  <defs>
    <style>
      .cls-1 {
        fill: #6e11b0;
        stroke-width: 0px;
      }
    </style>
  </defs>
  <g id="Layer_1-2" data-name="Layer 1">
    <path class="cls-1" d="M34.09,67.16c1.98-1.77,3.99-3.48,6-5.22.73-.64,3.01-2.02-.28.17.88-.59,1.72-1.24,2.6-1.82,1.1-.72,2.22-1.4,3.37-2.03.59-.32,3.63-1.7,1.14-.67-2.9,1.2,1.87-.49,2.03-.54l1.54-.36c2.27-.44,2.02-.41-.77.08.37-.45,2.87.49,3.02.03-.29.87-3.96-1.06-.86-.05.21.07,4.98,1.27,1.9.39-2.89-.83,1.29.72,1.69.96.52.3,2.37,1.24,2.54,1.66l-1.68-1.23,1.12,1.03c.1.12,3.45,3.85,1.44,1.39-1.81-2.21,1.09,1.76,1.41,2.29,1.19,1.95,2.15,3.98,3.23,5.99.46.86,1.96,3.2-.15-.56.47.84.79,1.97,1.14,2.89,1.87,4.93,3.39,9.98,4.88,15.03,2.97,10.05,6.14,19.89,10.22,29.55,8.79,20.82,23.59,37.64,34.24,57.38,1.31,2.42-1.01-.15-.52-1.34-.08.19.86,2.37.86,2.35.6,1.78,1.11,3.6,1.52,5.44.15.65.19,2.66.6,3.08-.25-.26-.43-5.12-.23-1.58.12,2.1.27,4.17.22,6.27-.02,1.04-.13,2.08-.16,3.13-.11,3.18-1.38,1.01.19-.98-.77.97-.7,3.58-1.04,4.85-.21.79-.45,1.59-.7,2.37s-1.96,3.85-.28,1.07c1.78-2.94-.26.45-.52.96-.56,1.09-1.16,2.15-1.81,3.19-.19.31-1.39,1.91-1.36,2.03-.29-1.02,2.8-3.2.87-1.15-.28.29-4.39,4.31-4.37,4.35-.09-.26,4.17-2.78,1.06-.84-.72.45-1.41.94-2.15,1.38-.83.5-2.15.9-2.86,1.55-1.26,1.15,3.32-.9,0,.04-1.21.34-2.4.75-3.63,1.03l-.73.17c-2.26.4-1.97.37.85-.08-.6.54-5.31.42-6-.04l2.35.31c-.74-.13-1.47-.28-2.2-.48-.9-.22-2.94-.44-3.58-1.09.18.18,4.09,2.23.68.18-.91-.54-5.14-2.22-.97-.22-1.54-.74-2.94-2.77-4.12-3.93-1.7-1.67-.23-1.56-.48-.39l.78,1.03c-.51-.68-1-1.37-1.47-2.07-.95-1.42-1.82-2.88-2.62-4.39-.5-.94-.87-1.99-1.42-2.89-.85-1.39,1.36,4.22.06-.05-1.17-3.86-2.12-7.63-2.96-11.58-.57-2.7.39,4.07.15,1.31-.1-1.12-.23-2.24-.31-3.37-.16-2.26-.22-4.52-.2-6.78.02-2.03.12-4.06.29-6.08.03-.34.31-3.35.34-3.35.18.02-.92,5.19-.13,1.35.84-4.05,1.69-8.04,3.04-11.96.19-.55,1.25-2.49,1.08-2.95.08.24-2.08,4.55-.56,1.39,1.02-2.12,2.02-4.24,3.15-6.31s2.31-4.04,3.58-5.99c.56-.86,1.14-1.72,1.73-2.56,1.1-1.58,2.42-3.7.55-.9,5.15-7.75,13.48-15.04,20.94-20.5-3.46,2.53.92-.61,2.2-1.52,2.12-1.5,4.28-2.96,6.46-4.37,3.93-2.54,7.94-4.94,12.02-7.23,16.67-9.36,34.75-16.55,48.75-30,15.33-14.72,20.86-34.73,22.14-55.36C203.59,9.55,193.28-.45,182.95.02c-11.39.51-19.31,8.79-20,20-.12,1.94.29,5.53-.64,7.27l.34-2.61c-.13.87-.28,1.73-.44,2.6-.16.83-.33,1.66-.51,2.49-.44,1.95-.96,3.89-1.58,5.79-.32.97-1.02,2.2-1.15,3.2.24-1.88,1.83-3.97.24-.8-.78,1.56-1.65,3.08-2.6,4.54-.37.58-.78,1.13-1.16,1.7-2.13,3.24,3.24-3.67.61-.83-1.17,1.26-2.28,2.54-3.52,3.73-.5.48-1.01.95-1.53,1.41-.54.49-4.23,3.31-1.24,1.15s-2.08,1.45-2.88,1.99c-1.61,1.08-3.24,2.11-4.9,3.1-3.8,2.28-7.71,4.39-11.64,6.43-9.4,4.9-18.86,9.59-27.86,15.22-37.82,23.69-69.64,62.2-64.69,109.44,2.37,22.66,11.95,47.78,33.59,58.72,23.49,11.88,53.45,5.9,69.93-14.98,14.05-17.8,18.45-41.44,12.19-63.3-6.64-23.2-24.99-40.21-35.43-61.5-.78-1.59-1.52-3.2-2.24-4.82,1.41,3.22-.19-.66-.63-1.78-1.12-2.86-2.19-5.72-3.14-8.63-1.81-5.51-3.35-11.1-5.02-16.65-4.13-13.69-9.23-27-18.28-38.23-10.12-12.55-27.26-19.57-43.22-17.43S17.53,28.37,5.8,38.87c-7.81,7-7.66,21.25,0,28.28,8.34,7.66,19.95,7.47,28.28,0h0Z"/>
  </g>
</svg>