<?xml version="1.0" encoding="UTF-8"?>
<svg id="Layer_2" data-name="Layer 2" xmlns="http://www.w3.org/2000/svg" viewBox="0 0 210.6 193.11">
  <defs>
    <style>
      .cls-1 {
        fill: #9f0712;
        stroke-width: 0px;
      }
    </style>
  </defs>
  <g id="Layer_1-2" data-name="Layer 1">
    <path class="cls-1" d="M75.55,14.54c-5.35,17.01-10.99,34.75-10.55,52.8.4,16.62,5.99,32.47,16.85,45.1,10.4,12.09,27.66,19.04,43.51,17.12,7.2-.88,13.73-2.52,20.45-5.22,5.24-2.1,10.38-4.54,15.81-6.12,1.2-.35,2.41-.59,3.62-.9,3.41-.86-4.56,1.13-1.28.23.24-.06,1.71.2,1.98.01-.26.18-4.36-1.14-2.89-.41.44.22,1.43.51,1.91.48,1.84-.11-3.74-1.62-1.97-.83,3.73,1.65-2.08-2.49.04-.22.69.74,3.35,4.12,1.91,1.88s1.11,1.87,1.58,2.69c.37.64.71,1.29,1.05,1.94,1.67,3.23,1.23.51.17,0,1.56.76,2.48,7.78,2.84,9.53,1.01,5.03.18-2.13.19,1.45,0,.78-.54,5.4-.05,5.89-.35-.35,1.16-4.77.1-1.08-.17.6-.39,1.29-.49,1.91-.08.49-.57,1.13-.56,1.61-.1-2.59,1.81-3.69.7-1.73-.62,1.09-1.22,2.17-1.85,3.25-2.12,3.6,2.92-2.91-.06.08-.85.85-1.73,1.69-2.58,2.54-2.32,2.33,3.58-2.33.78-.57-2.27,1.42-4.55,2.65-6.92,3.89-2.19,1.15,4.16-1.47,1.76-.77-.52.15-1.04.38-1.55.56-1.23.42-2.48.8-3.73,1.15-2.77.76-5.57,1.28-8.4,1.78-3.47.61,5-.44.08-.06-1.38.11-2.75.24-4.13.32-2.77.16-5.54.21-8.31.18-5.62-.06-11.16-.67-16.75-1.18-2.22-.2,2.87.41,2.59.35-.86-.19-1.78-.26-2.66-.41-1.37-.22-2.73-.46-4.09-.71-3.75-.71-7.49-1.5-11.19-2.44-4.57-1.16-9.08-2.52-13.53-4.07-2.22-.77-4.43-1.59-6.62-2.44-.82-.32-1.64-.65-2.46-.98-5.21-2.09,2.01,1.01-.91-.39-17.37-8.33-33.85-17.67-50.02-28.16-8.8-5.7-22.48-2.07-27.36,7.18-5.26,9.96-2.21,21.28,7.18,27.36,29.45,19.09,60.83,36.57,95.78,42.79,25.64,4.56,55.48,5.96,78.78-7.71,12.77-7.49,23.34-20.58,25.55-35.49,2.94-19.84-2.9-39.54-15.48-55.08-10.86-13.42-28.5-16.7-44.44-11.68-5.63,1.77-10.96,4.35-16.46,6.47-2.66,1.03-5.34,1.98-8.1,2.71-.92.24-3.36.34-4.14.92,1.85-1.39,4.2-.3,1.73-.26-1,.02-2.02.05-3.02.09-.31.01-1.6-.25-1.82-.08,1.41-1.05,4.28.98,1.03.05-.83-.24-1.67-.43-2.49-.69-3.66-1.14.55.19.47.35-.08.15-4.49-2.52-4.45-2.57.14-.19,3.73,3.39,1.04.78-.61-.59-1.25-1.14-1.85-1.74s-1.14-1.26-1.72-1.87c-2.37-2.48,1.16,2.52.42.49-.55-1.5-1.83-3.05-2.63-4.45l-.3-.58c-.73-1.57-.75-1.57-.07,0,.56,1.39.65,1.58.26.57-.24-.61-.47-1.23-.67-1.86-.57-1.67-1.05-3.38-1.44-5.1-.2-.87-.34-1.74-.53-2.61-.72-3.27.4,1.29.15,1.36,0,0-.32-5.67-.32-5.96,0-1.84.11-3.68.25-5.52.1-1.23.23-2.46.34-3.7.31-3.31-.91,4.59.23-1.1,2.08-10.38,5.14-20.43,8.31-30.52s-3.7-22.26-13.97-24.6c-10.89-2.48-21.24,3.28-24.6,13.97h0Z"/>
  </g>
</svg>