<?xml version="1.0" encoding="UTF-8"?>
<svg id="Layer_2" data-name="Layer 2" xmlns="http://www.w3.org/2000/svg" viewBox="0 0 184.51 192.29">
  <defs>
    <style>
      .cls-1 {
        fill: #1d293d;
        stroke-width: 0px;
      }
    </style>
  </defs>
  <g id="Layer_1-2" data-name="Layer 1">
    <path class="cls-1" d="M54.16,157.33c7.23-15.81,14.71-31.49,23.8-46.33,4.45-7.25,9.2-14.31,14.21-21.19,1.07-1.47,2.15-2.93,3.24-4.39.62-.82,4.06-5.3,1.84-2.45,2.61-3.35,5.25-6.66,7.93-9.95,5.35-6.57,10.83-13.04,16.33-19.49,2.42-2.84,4.81-5.72,7.36-8.46,1.11-1.19,2.24-2.36,3.42-3.49.76-.73,1.6-1.39,2.33-2.14,1.84-1.86-2.82,1.6-.55.44.21-.11,1.75-.91,1.81-1.11-.35,1.09-5.74,1.36-5.74,1.36-3.16-.11-6.69-1.58-8.89-3.88l-.86-1.17c-1.07-1.52-1.14-1.57-.21-.14.43.17,1,2.79.14.12s-.11-.07,0,.37c.26,1.01.58,2,.83,3.01.47,1.88.84,3.78,1.18,5.69.27,1.52,1.14,6.3.41,2.16.76,4.32,1.01,8.78,1.57,13.13,2.42,18.71,5.55,37.29,9.73,55.7,1.93,8.48,4.1,16.91,6.26,25.33,1.12,4.36,2.23,8.73,3.16,13.13.32,1.55.6,3.11.89,4.66.59,3.18-.38-.73-.08-.83-.06.02.24,2.78.25,3.04.06,1.12-.44,3.38-.03,4.36-1.17-2.8,1-3.51.03-1.51l5.3-5.11c2.02-4.31,5.09-6.01,9.22-5.11,5.22,0,4.87.19,2.92-.31,3.72.95,3.35,1.16,1.68.44-2.08-.9.27-.6-.04.09,1.16.93,1.33,1.05.51.37-.33-.27-.65-.55-.97-.83-5.62-5.16-10.38-11.16-15.28-17-11-13.09-21.72-26.4-32.72-39.49-25.01-29.76-52.49-57.01-81.13-83.26-7.71-7.07-20.76-8.2-28.28,0-7.07,7.7-8.24,20.73,0,28.28,28.87,26.47,56.53,53.96,81.72,83.98,12.58,14.99,24.82,30.27,37.53,45.16,5.53,6.48,11.15,12.67,18.46,17.24,12.18,7.62,28.61,5.85,36.58-6.95,6.08-9.75,4.73-21.7,3.01-32.45-1.51-9.42-4.21-18.64-6.56-27.87-4.93-19.36-8.97-38.94-11.83-58.71-.18-1.27-.37-2.55-.54-3.83.48,3.5.03.2-.04-.43-.3-2.56-.62-5.12-.91-7.68-.65-5.73-1.35-11.48-2.4-17.15-1.88-10.18-5.6-20.41-14.02-26.92-20.78-16.05-41.16,5-54.1,20.19-14.45,16.96-28.75,34.17-41.3,52.61-12.57,18.47-22.46,38.31-31.72,58.59-4.34,9.49-3.03,21.97,7.18,27.36,8.79,4.64,22.72,2.98,27.36-7.18h0Z"/>
  </g>
</svg>